<svg id="Layer_1" data-name="Layer 1" xmlns="http://www.w3.org/2000/svg" viewBox="0 0 278.61 278.61"><defs><style>.cls-1{fill:#fff;}.cls-2{fill:#f35959;}.cls-3{fill:#212121;}</style></defs><circle class="cls-1" cx="139.31" cy="139.31" r="131.31"/><path class="cls-2" d="M8,139.31a131.31,131.31,0,1,1,262.61,0"/><path class="cls-3" d="M139.31,278.61C62.49,278.61,0,216.12,0,139.31S62.49,0,139.31,0s139.3,62.49,139.3,139.31S216.12,278.61,139.31,278.61Zm0-262.61a123.31,123.31,0,1,0,123.3,123.31A123.44,123.44,0,0,0,139.31,16Z"/><rect class="cls-3" x="8" y="131.31" width="262.61" height="16"/><circle class="cls-1" cx="139.31" cy="139.31" r="48.15"/><path class="cls-3" d="M139.3,195.45a56.15,56.15,0,1,1,56.15-56.15A56.21,56.21,0,0,1,139.3,195.45Zm0-96.3a40.16,40.16,0,1,0,40.16,40.15A40.21,40.21,0,0,0,139.3,99.15Z"/><circle class="cls-1" cx="139.31" cy="139.31" r="20.47"/><path class="cls-3" d="M139.3,167.77a28.47,28.47,0,1,1,28.47-28.47A28.5,28.5,0,0,1,139.3,167.77Zm0-40.94a12.48,12.48,0,1,0,12.48,12.47A12.49,12.49,0,0,0,139.3,126.83Z"/><path class="cls-1" d="M60.76,93.77l-13.85-8a106.9,106.9,0,0,1,46.37-43l6.93,14.41A91,91,0,0,0,60.76,93.77Z"/></svg>